<svg xmlns="http://www.w3.org/2000/svg" viewBox="0 0 83.22 110.63" id="icon-cabinet"><path d="M57.76,46.42A25.77,25.77,0,0,0,68,25.93a26.39,26.39,0,0,0-52.78,0A25.74,25.74,0,0,0,25.46,46.42,40.93,40.93,0,0,0,0,84.09V90a4.36,4.36,0,0,0,4.4,4.32H23.15L38.5,109.36a4.44,4.44,0,0,0,6.22,0L60.06,94.28H78.82A4.36,4.36,0,0,0,83.22,90V84.09A40.94,40.94,0,0,0,57.76,46.42ZM24,25.93a17.6,17.6,0,0,1,35.19,0,17.6,17.6,0,0,1-35.19,0ZM74.42,85.64H58.24a4.42,4.42,0,0,0-3.11,1.27L41.61,100.19,28.08,86.91A4.39,4.39,0,0,0,25,85.64H8.8V84.09c0-17.77,14.72-32.23,32.81-32.23S74.42,66.32,74.42,84.09Z"/></svg>