<svg xmlns="http://www.w3.org/2000/svg" viewBox="0 0 512 511" id="icon-save"><path d="M392.24,172.66v184a39.93,39.93,0,1,1-39.93,0v-184a20,20,0,0,1,39.93,0Zm99.8,19a20,20,0,0,0,0-39.93H462.1V120.76H492a20,20,0,0,0,0-39.92H461.65A89.84,89.84,0,0,0,325.47,13.15a20,20,0,0,0,20.82,34.06,49.92,49.92,0,0,1,75.89,42.61V241.53a20,20,0,0,0,20,20H492a20,20,0,0,0,0-39.92H462.1V191.63ZM442,317.1a20,20,0,0,0-4.66,27.84,79.85,79.85,0,1,1-120.95-10.72,20,20,0,0,0-27.94-28.51,119.76,119.76,0,1,0,181.39,16A20,20,0,0,0,442,317.1Zm-175.8-36.39a20,20,0,0,0,14.31-24.33c-2.31-8.95-5.19-20.08-7.62-29.43l29.53-7.61a20,20,0,0,0-10-38.66l-40.88,10.54-53.49-31.47,53.49-31.46,40.88,10.54a20,20,0,1,0,10-38.65l-29.53-7.62c2.43-9.36,5.31-20.48,7.62-29.43a20,20,0,1,0-38.64-10L231.3,93.89l-52.65,31V63.93l29.84-29.77A20,20,0,0,0,180.28,5.9L158.69,27.45,137.11,5.91A20,20,0,1,0,108.9,34.16l29.84,29.77v60.93l-52.66-31L75.53,53.13a20,20,0,1,0-38.65,10L44.5,92.56,15,100.18a20,20,0,1,0,10,38.65l40.88-10.54,53.5,31.46-53.5,31.47L25,180.68a20,20,0,0,0-10,38.66L44.5,227l-7.62,29.43A20,20,0,0,0,51.2,280.71a20.21,20.21,0,0,0,5,.64,20,20,0,0,0,19.31-15l10.55-40.76,52.65-31v60.92L108.9,285.36a20,20,0,0,0,28.21,28.25l21.58-21.55,21.59,21.55a20,20,0,1,0,28.2-28.25l-29.83-29.78V194.66l52.65,31,10.56,40.77a20,20,0,0,0,19.31,15A20.21,20.21,0,0,0,266.19,280.71Z"/></svg>