<svg xmlns="http://www.w3.org/2000/svg" viewBox="0 0 19 19" id="icon-close"><defs><style>.a{fill:#d0d0d0;}</style></defs><title>icon-close</title><path class="a" d="M12.23,9.8a.42.42,0,0,1,0-.59h0l6.51-6.51A.92.92,0,0,0,19,2.08a.91.91,0,0,0-.26-.6L17.53.26A.94.94,0,0,0,16.92,0a.78.78,0,0,0-.61.26L9.8,6.77a.41.41,0,0,1-.59,0h0L2.69.26A.92.92,0,0,0,2.08,0a.94.94,0,0,0-.61.26L.26,1.48a.91.91,0,0,0-.26.6.94.94,0,0,0,.26.61L6.77,9.2a.42.42,0,0,1,0,.59h0L.26,16.31a.92.92,0,0,0-.26.61,1,1,0,0,0,.26.61l1.21,1.21a1,1,0,0,0,.61.26.92.92,0,0,0,.61-.26L9.2,12.23a.41.41,0,0,1,.59,0h0l6.51,6.51a.85.85,0,0,0,1.22,0l1.21-1.21a.94.94,0,0,0,.26-.61.92.92,0,0,0-.26-.61Z"/></svg>