<svg xmlns="http://www.w3.org/2000/svg" viewBox="0 0 512 512" id="icon-discount"><path d="M306.7,512a67.07,67.07,0,0,1-36.17-10.58,27,27,0,0,0-29.07,0,66.93,66.93,0,0,1-95.59-25.61,27,27,0,0,0-25.17-14.53,67,67,0,0,1-70-70,27,27,0,0,0-14.53-25.18,66.93,66.93,0,0,1-25.61-95.59,27,27,0,0,0,0-29.07,66.93,66.93,0,0,1,25.61-95.59A27,27,0,0,0,50.72,120.7a67,67,0,0,1,70-70,27,27,0,0,0,25.17-14.53,66.93,66.93,0,0,1,95.59-25.61,27,27,0,0,0,29.07,0,66.93,66.93,0,0,1,95.59,25.61A27,27,0,0,0,391.3,50.73a66.93,66.93,0,0,1,70,70,27,27,0,0,0,14.54,25.18,66.94,66.94,0,0,1,25.61,95.58,27,27,0,0,0,0,29.08,66.94,66.94,0,0,1-25.61,95.58,20,20,0,0,1-18.37-35.54,26.94,26.94,0,0,0,10.3-38.46,67.11,67.11,0,0,1,0-72.25,26.94,26.94,0,0,0-10.3-38.46,67.11,67.11,0,0,1-36.13-62.57,26.93,26.93,0,0,0-28.15-28.16,67.17,67.17,0,0,1-62.58-36.12,26.93,26.93,0,0,0-38.46-10.31,67.11,67.11,0,0,1-72.25,0,26.94,26.94,0,0,0-38.46,10.31,67.14,67.14,0,0,1-59.48,36.2c-1,0-2.06,0-3.09-.08a26.94,26.94,0,0,0-28.16,28.16,67.11,67.11,0,0,1-36.12,62.57,26.94,26.94,0,0,0-10.31,38.46,67.11,67.11,0,0,1,0,72.25,26.93,26.93,0,0,0,10.31,38.46,67.13,67.13,0,0,1,36.12,62.58,26.94,26.94,0,0,0,28.16,28.16,67.16,67.16,0,0,1,62.57,36.12,26.92,26.92,0,0,0,38.46,10.3,67.15,67.15,0,0,1,72.25,0,26.92,26.92,0,0,0,38.46-10.3,67.08,67.08,0,0,1,62.58-36.12A26.7,26.7,0,0,0,409.08,417a20,20,0,0,1,21.86,33.51,66.43,66.43,0,0,1-39.64,10.76,27,27,0,0,0-25.18,14.54A66.87,66.87,0,0,1,306.7,512ZM224,185a50,50,0,1,0-50,50A50.06,50.06,0,0,0,224,185Zm-40,0a10,10,0,1,1-10-10A10,10,0,0,1,184,185ZM389,325a50,50,0,1,0-50,50A50.06,50.06,0,0,0,389,325Zm-40,0a10,10,0,1,1-10-10A10,10,0,0,1,349,325ZM222.4,364.52l108.11-200a20,20,0,1,0-35.18-19l-108.12,200a20,20,0,1,0,35.19,19Z"/></svg>