<svg xmlns="http://www.w3.org/2000/svg" viewBox="0 0 512 512" id="icon-mouse"><path d="M370.26,140.32c-31.69-31.61-66.41-51.23-100.41-56.72-39.41-6.37-76.34,6.32-106.84,36.74L38.39,245.61C13.28,270.66,0,300.75,0,332.61c0,40.21,20.23,81.64,58.48,119.81l1.26,1.25c31.69,31.62,66.41,51.24,100.4,56.73A123.29,123.29,0,0,0,179.8,512c32,0,61.81-13,87.13-38.29a20,20,0,0,0-28.25-28.32c-58.94,58.8-125,5.58-150.69-20l-1.25-1.25C56.6,394,40,361.54,40,332.61c0-21.31,9-41.05,26.7-58.74l67.78-68.13c14,9.07,56.1,37.82,102.39,83.76a691,691,0,0,1,72.37,85.07l-1.88,1.89a20,20,0,0,0,28.38,28.18l55.87-56.25c25.11-25.06,38.39-55.14,38.39-87,0-40.21-20.23-81.64-58.48-119.81Zm-178.94,8.29c50.6-50.48,106.46-18.4,137.49,7.89l-84.76,84.56a698.44,698.44,0,0,0-80.78-64.26Zm172,171.53L337.8,345.8a734.3,734.3,0,0,0-65.05-76.87l84.25-84c21.4,25.65,33,52.32,33,76.5C390,282.69,381,302.44,363.29,320.14ZM332,56V20a20,20,0,0,1,40,0V56a20,20,0,0,1-40,0ZM512,160a20,20,0,0,1-20,20H456a20,20,0,0,1,0-40h36A20,20,0,0,1,512,160ZM410.51,96.79a20,20,0,0,1,.7-28.28l26-24.74a20,20,0,0,1,27.58,29l-26,24.74a20,20,0,0,1-28.28-.7Z"/></svg>