<svg xmlns="http://www.w3.org/2000/svg" viewBox="0 0 110.12 110.12" id="icon-mob"><defs><style>.a{fill:#488dff;}</style></defs><path class="a" d="M0,80A17.43,17.43,0,0,0,5.15,92.41l9,9A29.6,29.6,0,0,0,35,110.12a28,28,0,0,0,4.73-.4,85.25,85.25,0,0,0,70-70,29.42,29.42,0,0,0-8.3-25.58l-9-9A17.56,17.56,0,0,0,64,10.3a25.7,25.7,0,0,0,9.39,32.08,71.78,71.78,0,0,1-31,31A25.7,25.7,0,0,0,10.3,64,17.59,17.59,0,0,0,0,80Zm9.18,0a8.41,8.41,0,0,1,4.92-7.64,16.47,16.47,0,0,1,21.22,7.12l1.14,2.1a4.58,4.58,0,0,0,5.89,2A81,81,0,0,0,83.58,42.35a4.58,4.58,0,0,0-2-5.89l-2.1-1.14A16.47,16.47,0,0,1,72.35,14.1a8.41,8.41,0,0,1,13.58-2.47l9,9a20.2,20.2,0,0,1,5.74,17.57,76.1,76.1,0,0,1-62.46,62.46,20.23,20.23,0,0,1-17.57-5.74l-9-9A8.38,8.38,0,0,1,9.18,80Z"/></svg>