<svg xmlns="http://www.w3.org/2000/svg" viewBox="0 0 57.32 53.78" id="icon-flowers"><defs><style>.a{fill:#a166d6;}</style></defs><path class="a" d="M57.2,19.41a9,9,0,0,1-5.74-.21c-.07-4.81-2.28-10.9-6.67-14.1-2.38-1.74-6.38-3.35-12-1.38C29.88.93,25-.36,18.83.08L16.25.27l.42,2.56c.32,2-.41,3.29-1.42,5.09-1.15,2-2.52,4.46-2.14,8.06a14.87,14.87,0,0,0-3.09.77C4.13,18.87.43,24.25.13,31.15L0,34.21l3-.64c2.94-.62,4.71.62,7,2.2,1.81,1.28,4,2.79,6.79,2.86,1.73,2.48.75,7.42.18,9.54l-.43,1.62,1.38,1c5.12,3.51,10.5,4,15,1.4A14.23,14.23,0,0,0,34.54,51a15.52,15.52,0,0,0,5.6-9.41,19.79,19.79,0,0,0,7.45-2.52,20.62,20.62,0,0,0,4.5-3.43,17.59,17.59,0,0,0,5.22-13.37ZM42,8.92c2.43,1.77,3.94,5,4.49,8a20.23,20.23,0,0,0-8.91-2.21,7.67,7.67,0,0,0-.21-1.75A14.06,14.06,0,0,0,35.66,7.8,7.49,7.49,0,0,1,42,8.92ZM19.38,10.24a13.91,13.91,0,0,0,2.05-5.51c4.05,0,7.05,1.1,8.51,2.91a21.5,21.5,0,0,1,2.49,4c1,4.24-1.72,7.39-4.88,9.15-.07-2.41-.56-7.33-3.15-10.09a26.25,26.25,0,0,1-.26,10.78,11.41,11.41,0,0,0-5.56-5.09,4.67,4.67,0,0,0-.64-.18C17.43,13.7,18.27,12.21,19.38,10.24ZM12.66,31.9c-1.94-1.37-4.25-3-7.45-3.21a9.84,9.84,0,0,1,6.42-7.49,7.93,7.93,0,0,1,9.42,3.1c-1.47-.43-5-1-9.79,1.6,0,0,6-1,10.37,2.27a8.7,8.7,0,0,1-2.18,3.51A5.22,5.22,0,0,1,12.66,31.9Zm19,15.4c-2,1.57-5.32,2.81-9.77.36.55-3.24.35-8.37-1-11.53a15.17,15.17,0,0,0,3.95-5.44,15.87,15.87,0,0,1,3,11.51c2.2-3.46,2.42-8.52-.8-13.81a18.37,18.37,0,0,1,8.51,10.09C36.18,40.29,35,44.69,31.64,47.3ZM48.72,32.35a16,16,0,0,1-8.66,4.51v0C39.37,34,36.76,29.87,33.53,27c2.56-.35,5.87-.75,9.28-1A27,27,0,0,0,31.44,22.9a14.88,14.88,0,0,0,4.16-3.29c4.59-.82,8,1,11.4,2.83a20.08,20.08,0,0,0,5.49,2.31A13.09,13.09,0,0,1,48.72,32.35Z"/></svg>