<svg xmlns="http://www.w3.org/2000/svg" viewBox="0 0 511 510.98" id="icon-bouket"><path d="M506.16,269.6a20,20,0,1,0-38.73,9.69,119.82,119.82,0,0,1,3.65,29c0,3.45-.21,6.95-.52,10.32a150.11,150.11,0,0,1-14.88-8.93c-21.83-14.88-39.41-34.74-52.39-59.12A54.82,54.82,0,0,0,427.68,213a42.77,42.77,0,0,0,.49-7.15,40.76,40.76,0,0,0,5,2.75,55,55,0,1,0,45.61-100.06,54.71,54.71,0,0,0-78.14-76.59q-.37.38-.75.78-.44-1-.84-1.83A55.17,55.17,0,0,0,325.57,5.53a54.2,54.2,0,0,0-25.91,26.74C275.11,15.72,241.17,0,200.61,0,179.8,0,159,5.27,158.08,5.49a20,20,0,0,0-14.42,24.27c0,.15.1.3.14.45l-.55.14c.44,1.77,6.38,24.36,25.49,51.12a18.9,18.9,0,0,0,0,3.19c.81,8.77-1.69,41-42.34,151.05-18.73,50.66-38.08,97.49-44.64,113.2L9,396.47A20,20,0,0,0,1,419.32C15.4,463.88,46.54,494.37,93.52,510a20,20,0,0,0,23-8.08l36.74-56.56c7,6.47,12.09,13.18,17.38,20.13,8.64,11.38,17.59,23.15,33.62,32C221,506.69,242.65,511,272.47,511a20,20,0,0,0,0-39.92c-47.42,0-55.93-11.2-70-29.75a207.66,207.66,0,0,0-17-20.33c22.06-8.94,54.92-21.87,90.2-34.41,107.33-38.15,147-41.07,161.15-39.4a20.38,20.38,0,0,0,3.4.08c21.89,13.56,39,18,40.46,18.42l.14-.56a3.88,3.88,0,0,0,.45.14,19.63,19.63,0,0,0,4.94.63,20,20,0,0,0,19.33-15c.23-.88,5.47-21.73,5.47-42.53A159.85,159.85,0,0,0,506.16,269.6ZM304.89,123.76c5.18-.53,20.71,3.21,39.2,9.07-15.6,11.24-29.08,19.56-34.15,20.67a15.25,15.25,0,0,1-17.31-12.6,14.88,14.88,0,0,1,12.26-17.14Zm53.58,78.53c1.09-5.08,9.38-18.64,20.59-34.35,5.9,18.36,9.67,33.77,9.16,39a15.06,15.06,0,0,1-27,6.48A14.89,14.89,0,0,1,358.47,202.29Zm111.25-37.42a15,15,0,0,1-19.85,7.42c-4.61-2.43-15.49-14.12-27.67-29.24,19.29-.69,35.18-.12,40,1.77A15.21,15.21,0,0,1,469.72,164.87ZM429,60.1A14.8,14.8,0,0,1,449.89,81c-3.84,3.4-18.23,9.32-36.2,15.27C419.64,78.33,425.56,64,429,60.1ZM335.57,49.9a14.66,14.66,0,0,1,7.49-8.49,15.19,15.19,0,0,1,20.17,7c2,4.77,3,20.55,2.92,39.8-15.38-11.75-27.31-22.28-29.86-26.81A15,15,0,0,1,335.57,49.9ZM300.74,84.05c-.73.08-1.42.17-2.06.27a54.41,54.41,0,0,0-35.8,22c-.66.91-1.27,1.84-1.86,2.78C236.07,96.37,215.71,78.9,200.37,57a150.66,150.66,0,0,1-10.08-16.53c3.37-.32,6.87-.52,10.32-.52C246.8,40,283,67.43,300.74,84.05ZM91.92,466.51C70,456.4,54.36,441.36,44.51,421l50.11-32.76,28.31,30.54ZM262.29,349c-47.66,16.95-91.07,34.62-110.17,42.57l-30.94-33.39c8.3-20,25.72-62.68,42.63-108.45,24.18-65.42,35.57-105.27,40.8-129.93a215.83,215.83,0,0,0,49.1,30.14,55.15,55.15,0,0,0,62.58,43c1.08-.18,2.25-.41,3.55-.74a38.12,38.12,0,0,0-.8,3.89,54.94,54.94,0,0,0,43.55,62.33,213.51,213.51,0,0,0,33.81,51.9C363.47,316,319.07,328.77,262.29,349Z"/></svg>