<svg xmlns="http://www.w3.org/2000/svg" viewBox="0 0 82.59 110.12" id="icon-geo"><defs><style>.a{fill:#488dff;}</style></defs><path class="a" d="M41.29,0A41.33,41.33,0,0,0,0,41.29C0,75.51,36.73,107.65,38.29,109a4.59,4.59,0,0,0,6,0c1.56-1.35,38.29-33.49,38.29-67.71A41.34,41.34,0,0,0,41.29,0Zm0,99.27c-8.5-8.2-32.11-33.2-32.11-58a32.12,32.12,0,0,1,64.23,0C73.41,66,49.79,91.06,41.29,99.27Zm0-76.33A18.36,18.36,0,1,0,59.65,41.29,18.37,18.37,0,0,0,41.29,22.94Zm0,27.53a9.18,9.18,0,1,1,9.18-9.18A9.18,9.18,0,0,1,41.29,50.47Z"/></svg>