<svg xmlns="http://www.w3.org/2000/svg" viewBox="0 0 512 423.1" id="icon-delivery"><path d="M450.81,214.92l-11.45-58.26c-3.14-16.35-8.55-28.84-16.54-38.17-10.31-12-24.77-18.39-41.82-18.39H314V20A20,20,0,0,0,294,0H20A20,20,0,0,0,0,20V303.1a80.08,80.08,0,0,0,78.43,80,60,60,0,0,0,113.13,0H315.44a60,60,0,0,0,113.12,0H492a20,20,0,0,0,20-20v-72A78.14,78.14,0,0,0,450.81,214.92ZM314,140.1h67c6.1,0,14.46,0,19.08,24.13,0,0,0,.07,0,.1l9.78,49.77H314Zm-179,243a20,20,0,1,1,20-20A20,20,0,0,1,135,383.1Zm237,0a20,20,0,1,1,20-20A20,20,0,0,1,372,383.1Zm100-40H428.56a60,60,0,0,0-113.12,0H191.56a60,60,0,0,0-113.11,0A40,40,0,0,1,40,303.1V40H274V214.1H100a20,20,0,0,0,0,40H433a20.15,20.15,0,0,0,5.35-.74A38,38,0,0,1,472,291.1Z"/></svg>