<?xml version="1.0" encoding="utf-8"?><svg xmlns="http://www.w3.org/2000/svg" xmlns:xlink="http://www.w3.org/1999/xlink"><symbol viewBox="0 0 257.57 451.85" id="icon-arrow" xmlns="http://www.w3.org/2000/svg"><path d="M248.3 248.29L54 442.57a31.64 31.64 0 0 1-44.73-44.74l171.91-171.91L9.27 54A31.64 31.64 0 0 1 54 9.27l194.31 194.28a31.64 31.64 0 0 1 0 44.74z"/></symbol><symbol viewBox="0 0 512 512" id="icon-basket" xmlns="http://www.w3.org/2000/svg"><path d="M492 352a20 20 0 0 0 20-20V152a20 20 0 0 0-20-20H366v-22a110 110 0 0 0-220 0v22H20a20 20 0 0 0-20 20v280a80.09 80.09 0 0 0 80 80h352a80.09 80.09 0 0 0 80-80 20 20 0 0 0-40 0 40 40 0 0 1-40 40H80a40 40 0 0 1-40-40V172h106v75a20 20 0 0 0 40 0V110a70 70 0 0 1 140 0v22h-80a20 20 0 0 0 0 40h80v75a20 20 0 0 0 40 0v-75h106v160a20 20 0 0 0 20 20z"/></symbol><symbol viewBox="0 0 511 510.98" id="icon-bouket" xmlns="http://www.w3.org/2000/svg"><path d="M506.16 269.6a20 20 0 1 0-38.73 9.69 119.82 119.82 0 0 1 3.65 29c0 3.45-.21 6.95-.52 10.32a150.11 150.11 0 0 1-14.88-8.93c-21.83-14.88-39.41-34.74-52.39-59.12A54.82 54.82 0 0 0 427.68 213a42.77 42.77 0 0 0 .49-7.15 40.76 40.76 0 0 0 5 2.75 55 55 0 1 0 45.61-100.06 54.71 54.71 0 0 0-78.14-76.59q-.37.38-.75.78-.44-1-.84-1.83a55.17 55.17 0 0 0-73.48-25.37 54.2 54.2 0 0 0-25.91 26.74C275.11 15.72 241.17 0 200.61 0 179.8 0 159 5.27 158.08 5.49a20 20 0 0 0-14.42 24.27c0 .15.1.3.14.45l-.55.14c.44 1.77 6.38 24.36 25.49 51.12a18.9 18.9 0 0 0 0 3.19c.81 8.77-1.69 41-42.34 151.05-18.73 50.66-38.08 97.49-44.64 113.2L9 396.47a20 20 0 0 0-8 22.85c14.4 44.56 45.54 75.05 92.52 90.68a20 20 0 0 0 23-8.08l36.74-56.56c7 6.47 12.09 13.18 17.38 20.13 8.64 11.38 17.59 23.15 33.62 32C221 506.69 242.65 511 272.47 511a20 20 0 0 0 0-39.92c-47.42 0-55.93-11.2-70-29.75a207.66 207.66 0 0 0-17-20.33c22.06-8.94 54.92-21.87 90.2-34.41 107.33-38.15 147-41.07 161.15-39.4a20.38 20.38 0 0 0 3.4.08c21.89 13.56 39 18 40.46 18.42l.14-.56a3.88 3.88 0 0 0 .45.14 19.63 19.63 0 0 0 4.94.63 20 20 0 0 0 19.33-15c.23-.88 5.47-21.73 5.47-42.53a159.85 159.85 0 0 0-4.85-38.77zM304.89 123.76c5.18-.53 20.71 3.21 39.2 9.07-15.6 11.24-29.08 19.56-34.15 20.67a15.25 15.25 0 0 1-17.31-12.6 14.88 14.88 0 0 1 12.26-17.14zm53.58 78.53c1.09-5.08 9.38-18.64 20.59-34.35 5.9 18.36 9.67 33.77 9.16 39a15.06 15.06 0 0 1-27 6.48 14.89 14.89 0 0 1-2.75-11.13zm111.25-37.42a15 15 0 0 1-19.85 7.42c-4.61-2.43-15.49-14.12-27.67-29.24 19.29-.69 35.18-.12 40 1.77a15.21 15.21 0 0 1 7.52 20.05zM429 60.1A14.8 14.8 0 0 1 449.89 81c-3.84 3.4-18.23 9.32-36.2 15.27C419.64 78.33 425.56 64 429 60.1zm-93.43-10.2a14.66 14.66 0 0 1 7.49-8.49 15.19 15.19 0 0 1 20.17 7c2 4.77 3 20.55 2.92 39.8-15.38-11.75-27.31-22.28-29.86-26.81a15 15 0 0 1-.72-11.5zm-34.83 34.15c-.73.08-1.42.17-2.06.27a54.41 54.41 0 0 0-35.8 22c-.66.91-1.27 1.84-1.86 2.78-24.95-12.73-45.31-30.2-60.65-52.1a150.66 150.66 0 0 1-10.08-16.53c3.37-.32 6.87-.52 10.32-.52C246.8 40 283 67.43 300.74 84.05zM91.92 466.51C70 456.4 54.36 441.36 44.51 421l50.11-32.76 28.31 30.54zM262.29 349c-47.66 16.95-91.07 34.62-110.17 42.57l-30.94-33.39c8.3-20 25.72-62.68 42.63-108.45 24.18-65.42 35.57-105.27 40.8-129.93a215.83 215.83 0 0 0 49.1 30.14 55.15 55.15 0 0 0 62.58 43c1.08-.18 2.25-.41 3.55-.74a38.12 38.12 0 0 0-.8 3.89 54.94 54.94 0 0 0 43.55 62.33 213.51 213.51 0 0 0 33.81 51.9C363.47 316 319.07 328.77 262.29 349z"/></symbol><symbol viewBox="0 0 83.22 110.63" id="icon-cabinet" xmlns="http://www.w3.org/2000/svg"><path d="M57.76 46.42A25.77 25.77 0 0 0 68 25.93a26.39 26.39 0 0 0-52.78 0 25.74 25.74 0 0 0 10.24 20.49A40.93 40.93 0 0 0 0 84.09V90a4.36 4.36 0 0 0 4.4 4.32h18.75l15.35 15.04a4.44 4.44 0 0 0 6.22 0l15.34-15.08h18.76a4.36 4.36 0 0 0 4.4-4.28v-5.91a40.94 40.94 0 0 0-25.46-37.67zM24 25.93a17.6 17.6 0 0 1 35.19 0 17.6 17.6 0 0 1-35.19 0zm50.42 59.71H58.24a4.42 4.42 0 0 0-3.11 1.27l-13.52 13.28-13.53-13.28A4.39 4.39 0 0 0 25 85.64H8.8v-1.55c0-17.77 14.72-32.23 32.81-32.23s32.81 14.46 32.81 32.23z"/></symbol><symbol viewBox="0 0 110.12 96.35" id="icon-calen" xmlns="http://www.w3.org/2000/svg"><path d="M96.35 6.88h-9.17V4.59a4.59 4.59 0 0 0-9.18 0v2.29H59.65V4.59a4.59 4.59 0 1 0-9.18 0v2.29H32.12V4.59a4.59 4.59 0 1 0-9.18 0v2.29h-9.18A13.78 13.78 0 0 0 0 20.65v61.94a13.77 13.77 0 0 0 13.76 13.76h82.59a13.78 13.78 0 0 0 13.77-13.76V20.65A13.79 13.79 0 0 0 96.35 6.88zM9.18 20.65a4.59 4.59 0 0 1 4.58-4.59h9.18v2.29a4.59 4.59 0 1 0 9.18 0v-2.29h18.35v2.29a4.59 4.59 0 1 0 9.18 0v-2.29H78v2.29a4.59 4.59 0 0 0 9.18 0v-2.29h9.17a4.6 4.6 0 0 1 4.59 4.59v9.17H9.18zm91.76 61.94a4.6 4.6 0 0 1-4.59 4.59H13.76a4.59 4.59 0 0 1-4.58-4.59V39h91.76zM41.29 52.76a4.59 4.59 0 1 1 4.59 4.59 4.59 4.59 0 0 1-4.59-4.59zm18.36 0a4.59 4.59 0 1 1 4.59 4.59 4.58 4.58 0 0 1-4.59-4.59zm18.35 0a4.59 4.59 0 1 1 4.59 4.59A4.58 4.58 0 0 1 78 52.76zM22.94 71.12a4.59 4.59 0 1 1 4.59 4.59 4.59 4.59 0 0 1-4.59-4.59zm18.35 0a4.59 4.59 0 1 1 4.59 4.59 4.59 4.59 0 0 1-4.59-4.59zm18.36 0a4.59 4.59 0 1 1 4.59 4.59 4.58 4.58 0 0 1-4.59-4.59z"/></symbol><symbol viewBox="0 0 512 423.1" id="icon-delivery" xmlns="http://www.w3.org/2000/svg"><path d="M450.81 214.92l-11.45-58.26c-3.14-16.35-8.55-28.84-16.54-38.17-10.31-12-24.77-18.39-41.82-18.39h-67V20a20 20 0 0 0-20-20H20A20 20 0 0 0 0 20v283.1a80.08 80.08 0 0 0 78.43 80 60 60 0 0 0 113.13 0h123.88a60 60 0 0 0 113.12 0H492a20 20 0 0 0 20-20v-72a78.14 78.14 0 0 0-61.19-76.18zM314 140.1h67c6.1 0 14.46 0 19.08 24.13v.1l9.78 49.77H314zm-179 243a20 20 0 1 1 20-20 20 20 0 0 1-20 20zm237 0a20 20 0 1 1 20-20 20 20 0 0 1-20 20zm100-40h-43.44a60 60 0 0 0-113.12 0H191.56a60 60 0 0 0-113.11 0 40 40 0 0 1-38.45-40V40h234v174.1H100a20 20 0 0 0 0 40h333a20.15 20.15 0 0 0 5.35-.74A38 38 0 0 1 472 291.1z"/></symbol><symbol viewBox="0 0 512 512" id="icon-discount" xmlns="http://www.w3.org/2000/svg"><path d="M306.7 512a67.07 67.07 0 0 1-36.17-10.58 27 27 0 0 0-29.07 0 66.93 66.93 0 0 1-95.59-25.61 27 27 0 0 0-25.17-14.53 67 67 0 0 1-70-70 27 27 0 0 0-14.53-25.18 66.93 66.93 0 0 1-25.61-95.59 27 27 0 0 0 0-29.07 66.93 66.93 0 0 1 25.61-95.59 27 27 0 0 0 14.55-25.15 67 67 0 0 1 70-70 27 27 0 0 0 25.17-14.53 66.93 66.93 0 0 1 95.59-25.61 27 27 0 0 0 29.07 0 66.93 66.93 0 0 1 95.59 25.61 27 27 0 0 0 25.16 14.56 66.93 66.93 0 0 1 70 70 27 27 0 0 0 14.54 25.18 66.94 66.94 0 0 1 25.61 95.58 27 27 0 0 0 0 29.08 66.94 66.94 0 0 1-25.61 95.58 20 20 0 0 1-18.37-35.54 26.94 26.94 0 0 0 10.3-38.46 67.11 67.11 0 0 1 0-72.25 26.94 26.94 0 0 0-10.3-38.46 67.11 67.11 0 0 1-36.13-62.57 26.93 26.93 0 0 0-28.15-28.16 67.17 67.17 0 0 1-62.58-36.12 26.93 26.93 0 0 0-38.46-10.31 67.11 67.11 0 0 1-72.25 0 26.94 26.94 0 0 0-38.46 10.31 67.14 67.14 0 0 1-59.48 36.2c-1 0-2.06 0-3.09-.08a26.94 26.94 0 0 0-28.16 28.16 67.11 67.11 0 0 1-36.12 62.57 26.94 26.94 0 0 0-10.31 38.46 67.11 67.11 0 0 1 0 72.25 26.93 26.93 0 0 0 10.31 38.46 67.13 67.13 0 0 1 36.12 62.58 26.94 26.94 0 0 0 28.16 28.16 67.16 67.16 0 0 1 62.57 36.12 26.92 26.92 0 0 0 38.46 10.3 67.15 67.15 0 0 1 72.25 0 26.92 26.92 0 0 0 38.46-10.3 67.08 67.08 0 0 1 62.58-36.12 26.7 26.7 0 0 0 15.89-4.35 20 20 0 0 1 21.86 33.51 66.43 66.43 0 0 1-39.64 10.76 27 27 0 0 0-25.18 14.54A66.87 66.87 0 0 1 306.7 512zM224 185a50 50 0 1 0-50 50 50.06 50.06 0 0 0 50-50zm-40 0a10 10 0 1 1-10-10 10 10 0 0 1 10 10zm205 140a50 50 0 1 0-50 50 50.06 50.06 0 0 0 50-50zm-40 0a10 10 0 1 1-10-10 10 10 0 0 1 10 10zm-126.6 39.52l108.11-200a20 20 0 1 0-35.18-19l-108.12 200a20 20 0 1 0 35.19 19z"/></symbol><symbol viewBox="0 0 57.32 53.78" id="icon-flowers" xmlns="http://www.w3.org/2000/svg"><path d="M57.2 19.41a9 9 0 0 1-5.74-.21c-.07-4.81-2.28-10.9-6.67-14.1-2.38-1.74-6.38-3.35-12-1.38C29.88.93 25-.36 18.83.08l-2.58.19.42 2.56c.32 2-.41 3.29-1.42 5.09-1.15 2-2.52 4.46-2.14 8.06a14.87 14.87 0 0 0-3.09.77C4.13 18.87.43 24.25.13 31.15L0 34.21l3-.64c2.94-.62 4.71.62 7 2.2 1.81 1.28 4 2.79 6.79 2.86 1.73 2.48.75 7.42.18 9.54l-.43 1.62 1.38 1c5.12 3.51 10.5 4 15 1.4A14.23 14.23 0 0 0 34.54 51a15.52 15.52 0 0 0 5.6-9.41 19.79 19.79 0 0 0 7.45-2.52 20.62 20.62 0 0 0 4.5-3.43 17.59 17.59 0 0 0 5.22-13.37zM42 8.92c2.43 1.77 3.94 5 4.49 8a20.23 20.23 0 0 0-8.91-2.21 7.67 7.67 0 0 0-.21-1.75 14.06 14.06 0 0 0-1.71-5.16A7.49 7.49 0 0 1 42 8.92zm-22.62 1.32a13.91 13.91 0 0 0 2.05-5.51c4.05 0 7.05 1.1 8.51 2.91a21.5 21.5 0 0 1 2.49 4c1 4.24-1.72 7.39-4.88 9.15-.07-2.41-.56-7.33-3.15-10.09a26.25 26.25 0 0 1-.26 10.78 11.41 11.41 0 0 0-5.56-5.09 4.67 4.67 0 0 0-.64-.18c-.51-2.51.33-4 1.44-5.97zM12.66 31.9c-1.94-1.37-4.25-3-7.45-3.21a9.84 9.84 0 0 1 6.42-7.49 7.93 7.93 0 0 1 9.42 3.1c-1.47-.43-5-1-9.79 1.6 0 0 6-1 10.37 2.27a8.7 8.7 0 0 1-2.18 3.51 5.22 5.22 0 0 1-6.79.22zm19 15.4c-2 1.57-5.32 2.81-9.77.36.55-3.24.35-8.37-1-11.53a15.17 15.17 0 0 0 3.95-5.44 15.87 15.87 0 0 1 3 11.51c2.2-3.46 2.42-8.52-.8-13.81a18.37 18.37 0 0 1 8.51 10.09c.63 1.81-.55 6.21-3.91 8.82zm17.06-14.95a16 16 0 0 1-8.66 4.51c-.69-2.86-3.3-6.99-6.53-9.86 2.56-.35 5.87-.75 9.28-1a27 27 0 0 0-11.37-3.1 14.88 14.88 0 0 0 4.16-3.29c4.59-.82 8 1 11.4 2.83a20.08 20.08 0 0 0 5.49 2.31 13.09 13.09 0 0 1-3.77 7.6z"/></symbol><symbol viewBox="0 0 82.59 110.12" id="icon-geo" xmlns="http://www.w3.org/2000/svg"><path d="M41.29 0A41.33 41.33 0 0 0 0 41.29C0 75.51 36.73 107.65 38.29 109a4.59 4.59 0 0 0 6 0c1.56-1.35 38.29-33.49 38.29-67.71A41.34 41.34 0 0 0 41.29 0zm0 99.27c-8.5-8.2-32.11-33.2-32.11-58a32.12 32.12 0 0 1 64.23 0c0 24.73-23.62 49.79-32.12 58zm0-76.33a18.36 18.36 0 1 0 18.36 18.35 18.37 18.37 0 0 0-18.36-18.35zm0 27.53a9.18 9.18 0 1 1 9.18-9.18 9.18 9.18 0 0 1-9.18 9.18z"/></symbol><symbol viewBox="0 0 110.12 110.12" id="icon-mob" xmlns="http://www.w3.org/2000/svg"><path d="M0 80a17.43 17.43 0 0 0 5.15 12.41l9 9A29.6 29.6 0 0 0 35 110.12a28 28 0 0 0 4.73-.4 85.25 85.25 0 0 0 70-70 29.42 29.42 0 0 0-8.3-25.58l-9-9A17.56 17.56 0 0 0 64 10.3a25.7 25.7 0 0 0 9.39 32.08 71.78 71.78 0 0 1-31 31A25.7 25.7 0 0 0 10.3 64 17.59 17.59 0 0 0 0 80zm9.18 0a8.41 8.41 0 0 1 4.92-7.64 16.47 16.47 0 0 1 21.22 7.12l1.14 2.1a4.58 4.58 0 0 0 5.89 2 81 81 0 0 0 41.23-41.23 4.58 4.58 0 0 0-2-5.89l-2.1-1.14a16.47 16.47 0 0 1-7.13-21.22 8.41 8.41 0 0 1 13.58-2.47l9 9a20.2 20.2 0 0 1 5.74 17.57 76.1 76.1 0 0 1-62.46 62.46 20.23 20.23 0 0 1-17.57-5.74l-9-9A8.38 8.38 0 0 1 9.18 80z"/></symbol><symbol viewBox="0 0 512 512" id="icon-mouse" xmlns="http://www.w3.org/2000/svg"><path d="M370.26 140.32c-31.69-31.61-66.41-51.23-100.41-56.72-39.41-6.37-76.34 6.32-106.84 36.74L38.39 245.61C13.28 270.66 0 300.75 0 332.61c0 40.21 20.23 81.64 58.48 119.81l1.26 1.25c31.69 31.62 66.41 51.24 100.4 56.73a123.29 123.29 0 0 0 19.66 1.6c32 0 61.81-13 87.13-38.29a20 20 0 0 0-28.25-28.32c-58.94 58.8-125 5.58-150.69-20l-1.25-1.25C56.6 394 40 361.54 40 332.61c0-21.31 9-41.05 26.7-58.74l67.78-68.13c14 9.07 56.1 37.82 102.39 83.76a691 691 0 0 1 72.37 85.07l-1.88 1.89a20 20 0 0 0 28.38 28.18l55.87-56.25c25.11-25.06 38.39-55.14 38.39-87 0-40.21-20.23-81.64-58.48-119.81zm-178.94 8.29c50.6-50.48 106.46-18.4 137.49 7.89l-84.76 84.56a698.44 698.44 0 0 0-80.78-64.26zm172 171.53L337.8 345.8a734.3 734.3 0 0 0-65.05-76.87l84.25-84c21.4 25.65 33 52.32 33 76.5 0 21.26-9 41.01-26.71 58.71zM332 56V20a20 20 0 0 1 40 0v36a20 20 0 0 1-40 0zm180 104a20 20 0 0 1-20 20h-36a20 20 0 0 1 0-40h36a20 20 0 0 1 20 20zM410.51 96.79a20 20 0 0 1 .7-28.28l26-24.74a20 20 0 0 1 27.58 29l-26 24.74a20 20 0 0 1-28.28-.7z"/></symbol><symbol viewBox="0 0 512 511" id="icon-save" xmlns="http://www.w3.org/2000/svg"><path d="M392.24 172.66v184a39.93 39.93 0 1 1-39.93 0v-184a20 20 0 0 1 39.93 0zm99.8 19a20 20 0 0 0 0-39.93H462.1v-30.97H492a20 20 0 0 0 0-39.92h-30.35a89.84 89.84 0 0 0-136.18-67.69 20 20 0 0 0 20.82 34.06 49.92 49.92 0 0 1 75.89 42.61v151.71a20 20 0 0 0 20 20H492a20 20 0 0 0 0-39.92h-29.9v-29.98zM442 317.1a20 20 0 0 0-4.66 27.84 79.85 79.85 0 1 1-120.95-10.72 20 20 0 0 0-27.94-28.51 119.76 119.76 0 1 0 181.39 16A20 20 0 0 0 442 317.1zm-175.8-36.39a20 20 0 0 0 14.31-24.33c-2.31-8.95-5.19-20.08-7.62-29.43l29.53-7.61a20 20 0 0 0-10-38.66l-40.88 10.54-53.49-31.47 53.49-31.46 40.88 10.54a20 20 0 1 0 10-38.65l-29.53-7.62c2.43-9.36 5.31-20.48 7.62-29.43a20 20 0 1 0-38.64-10L231.3 93.89l-52.65 31V63.93l29.84-29.77A20 20 0 0 0 180.28 5.9l-21.59 21.55-21.58-21.54a20 20 0 1 0-28.21 28.25l29.84 29.77v60.93l-52.66-31-10.55-40.73a20 20 0 1 0-38.65 10l7.62 29.43-29.5 7.62a20 20 0 1 0 10 38.65l40.88-10.54 53.5 31.46-53.5 31.47L25 180.68a20 20 0 0 0-10 38.66L44.5 227l-7.62 29.43a20 20 0 0 0 14.32 24.28 20.21 20.21 0 0 0 5 .64 20 20 0 0 0 19.31-15l10.55-40.76 52.65-31v60.92l-29.81 29.85a20 20 0 0 0 28.21 28.25l21.58-21.55 21.59 21.55a20 20 0 1 0 28.2-28.25l-29.83-29.78v-60.92l52.65 31 10.56 40.77a20 20 0 0 0 19.31 15 20.21 20.21 0 0 0 5.02-.72z"/></symbol></svg>