<svg xmlns="http://www.w3.org/2000/svg" xmlns:xlink="http://www.w3.org/1999/xlink" width="52" height="52" viewBox="0 0 52 52"><defs><path id="952xa" d="M692 5460c6.075 0 11 4.925 11 11s-4.925 11-11 11-11-4.925-11-11 4.925-11 11-11z"/><path id="952xb" d="M692 5455c8.837 0 16 7.163 16 16 0 8.836-7.163 16-16 16s-16-7.164-16-16c0-8.837 7.163-16 16-16z"/><path id="952xc" d="M692 5450c11.598 0 21 9.402 21 21s-9.402 21-21 21-21-9.402-21-21 9.402-21 21-21z"/><path id="952xd" d="M692 5445c14.36 0 26 11.64 26 26s-11.64 26-26 26-26-11.64-26-26 11.64-26 26-26z"/><mask id="952xf" width="2" height="2" x="-1" y="-1"><path fill="#fff" d="M681 5460h22v22h-22z"/><use xlink:href="#952xa"/></mask><filter id="952xe" width="62" height="62" x="661" y="5440" filterUnits="userSpaceOnUse"><feOffset in="SourceGraphic" result="FeOffset1025Out"/><feGaussianBlur in="FeOffset1025Out" result="FeGaussianBlur1026Out" stdDeviation="4 4"/></filter><clipPath id="952xg"><use fill="#fff" xlink:href="#952xb"/></clipPath><clipPath id="952xh"><use fill="#fff" xlink:href="#952xc"/></clipPath><clipPath id="952xi"><use fill="#fff" xlink:href="#952xd"/></clipPath></defs><g><g transform="translate(-666 -5445)"><g><g filter="url(#952xe)"><use fill="none" stroke-opacity=".3" stroke-width="0" mask="url(&quot;#952xf&quot;)" xlink:href="#952xa"/><use fill-opacity=".3" xlink:href="#952xa"/></g><use xlink:href="#952xa"/></g><g opacity=".3"><use fill="#fff" fill-opacity="0" stroke="#000" stroke-linecap="round" stroke-linejoin="round" stroke-miterlimit="50" stroke-width="2" clip-path="url(&quot;#952xg&quot;)" xlink:href="#952xb"/></g><g opacity=".15"><use fill="#fff" fill-opacity="0" stroke="#000" stroke-linecap="round" stroke-linejoin="round" stroke-miterlimit="50" stroke-width="2" clip-path="url(&quot;#952xh&quot;)" xlink:href="#952xc"/></g><g opacity=".05"><use fill="#fff" fill-opacity="0" stroke="#000" stroke-linecap="round" stroke-linejoin="round" stroke-miterlimit="50" stroke-width="2" clip-path="url(&quot;#952xi&quot;)" xlink:href="#952xd"/></g></g></g></svg>