<?xml version="1.0" encoding="utf-8"?><svg xmlns="http://www.w3.org/2000/svg" xmlns:xlink="http://www.w3.org/1999/xlink"><symbol viewBox="0 0 451.846 451.847" id="arrow-right" xmlns="http://www.w3.org/2000/svg"><path d="M345.441 248.292L151.154 442.573c-12.359 12.365-32.397 12.365-44.75 0-12.354-12.354-12.354-32.391 0-44.744L278.318 225.92 106.409 54.017c-12.354-12.359-12.354-32.394 0-44.748 12.354-12.359 32.391-12.359 44.75 0l194.287 194.284c6.177 6.18 9.262 14.271 9.262 22.366 0 8.099-3.091 16.196-9.267 22.373z"/></symbol><symbol viewBox="0 0 257.57 451.85" id="icon-arrow" xmlns="http://www.w3.org/2000/svg"><path d="M248.3 248.29L54 442.57a31.64 31.64 0 0 1-44.73-44.74l171.91-171.91L9.27 54A31.64 31.64 0 0 1 54 9.27l194.31 194.28a31.64 31.64 0 0 1 0 44.74z"/></symbol><symbol viewBox="0 0 257.57 451.85" id="icon-arrow-right" xmlns="http://www.w3.org/2000/svg"><path d="M248.3 248.29L54 442.57a31.64 31.64 0 0 1-44.73-44.74l171.91-171.91L9.27 54A31.64 31.64 0 0 1 54 9.27l194.31 194.28a31.64 31.64 0 0 1 0 44.74z"/></symbol><symbol viewBox="0 0 511.998 511.998" id="icon-avatar" xmlns="http://www.w3.org/2000/svg"><path d="M495.269 139.762c5.003-15.279-.101-32.765-13.728-42.69L452.882 76.2a9.999 9.999 0 0 0-7.118-1.84l-44.518 5.52c-.352.044-.697.106-1.036.185l-7.655-3.622c-10.044-4.752-21.151-6.512-32.006-5.286V55.79l-.012-.012c0-.133.009-.264.004-.398-.137-3.318-1.883-6.183-4.448-7.897-.053-16.082-10.401-31.08-26.463-36.214L295.858.474a10.004 10.004 0 0 0-7.335.493l-40.521 19.248c-.32.152-.627.32-.923.5l-8.407-1.029a59.295 59.295 0 0 0-45.96 14.01l-16.781 14.529c-2.053 1.777-3.235 4.278-3.41 6.898a4.196 4.196 0 0 0-.034.391c-.001.054-.005.107-.006.16-.001.039-.004.07-.004.111l.001 27.972a27.155 27.155 0 0 0-14.353.051 27.095 27.095 0 0 0-7.307 3.268l-17.296 1.973a31.322 31.322 0 0 0-9.603 2.699l-11.713 3.687a59.325 59.325 0 0 0-36.036 31.781l-9.26 20.174a9.988 9.988 0 0 0-.004 8.31.126.126 0 0 1-.01.003l26.937 59.221a83.559 83.559 0 0 0 20.81 28.12 70.81 70.81 0 0 0-28.971 17.55 10 10 0 0 0-.334 13.791l100.06 110.263c-8.438 7.737-13.327 18.651-13.327 30.35 0 14.084 7.068 27.046 18.907 34.675a41.344 41.344 0 0 0 12.011 5.251l-16.286 43.573a10.002 10.002 0 0 0 9.367 13.501h140a10 10 0 0 0 9.294-13.692l-17.145-43.161a41.325 41.325 0 0 0 12.944-5.484c11.839-7.623 18.908-20.581 18.908-34.663 0-11.896-5.06-22.977-13.763-30.73l100.47-109.854c3.668-4.012 3.461-10.219-.468-13.976-2.569-2.458-6.112-3.268-9.333-2.466 18.297-9.916 32.598-26.528 39.436-47.157l20.469-61.755a9.989 9.989 0 0 0-1.613-9.298zm-70.283-22.877c1.133.584 3.78 2.356 3.874 6.183.059 2.376-1.062 4.618-2.945 5.962l-9.259 6.521c-.581.409-1.102.87-1.568 1.37a88.252 88.252 0 0 0-4.149 2.026l-11.764-9.108 18.529-12.523c3.169-2.144 6.147-1.017 7.282-.431zm-42.186-7.178c.664-4.155 3.425-7.478 7.388-8.89a11.322 11.322 0 0 1 10.51 1.542l1.639 1.204-18.666 12.615a11.255 11.255 0 0 1-.871-6.471zm-30.611-15.958a39.265 39.265 0 0 1 18.133-2.866c-3.765 4.318-6.314 9.676-7.272 15.67-1.833 11.486 2.563 22.595 11.76 29.716l19.05 14.749c-6.988 7.506-10.267 17.878-8.643 28.205.701 4.455.944 8.995.723 13.494-.021.435-.02.802.016 1.235.011.164.975 16.61-10.63 31.606-.736.951-1.398 1.896-1.983 2.731-.551.787-1.072 1.53-1.565 2.152l-8.857 11.199-1.426-2.883c-8.158-16.494-5.508-36.017 6.752-49.738 6.663-7.458 9.577-17.398 7.996-27.273s-7.454-18.409-16.112-23.414c-13.917-8.045-22.365-22.616-22.53-38.525l14.588-6.058zm-14.792 133.782l-1.962-1.711c-11.016-9.606-18.115-22.381-20.702-36.099a10.016 10.016 0 0 0-.884-6.494 63.588 63.588 0 0 1 3.028-25.299l8.925-26.926c5.605 10.053 13.896 18.619 24.32 24.644a13.033 13.033 0 0 1 6.373 9.262 13.035 13.035 0 0 1-3.163 10.787c-12.927 14.469-18.456 33.397-15.935 51.836zm-15.11 13.36a72.04 72.04 0 0 0-12.887-1.174c-11.641 0-22.85 2.785-32.885 8.016v-33.91h.001a61.544 61.544 0 0 0 21.901-7.975c4.701 13.249 12.776 25.368 23.87 35.043zM340.549 66.21l.001 10.717-16.53 6.863c-2.521 1.046-4.437 3.062-5.423 5.511a5.27 5.27 0 0 0-.121.281c-.025.067-.053.132-.076.2-.012.034-.026.063-.037.097l-20.47 61.756a83.601 83.601 0 0 0-4.004 32.923 41.571 41.571 0 0 1-12.281 7.307l4.594-12.621c.47-1.291.843-2.537 1.173-3.637.251-.838.488-1.63.73-2.316 8.155-23.165 1.537-42.984.001-47.02a86.247 86.247 0 0 0-6.283-15.883 13.72 13.72 0 0 1 .801-13.932c12.039-17.94 32.113-29.183 53.7-30.072l4.225-.174zm-47.014-45.482l30.006 9.591c7.246 2.316 12.022 8.864 12.5 16.061l-.538.022a87.73 87.73 0 0 0-27.438 5.622 27.204 27.204 0 0 0-1.436-6.262 27.142 27.142 0 0 0-21.342-17.649 27.107 27.107 0 0 0-6.908-.185l15.156-7.2zm-18.129 29.843c2.334-3.031 5.514-2.902 6.775-2.7 1.26.197 4.33 1.047 5.623 4.65.802 2.235.445 4.716-.92 6.585l-6.736 9.104a10.064 10.064 0 0 0-1.058 1.796 88.804 88.804 0 0 0-3.3 3.226l-14.032-4.944 13.648-17.717zm-31.311-7.003a11.324 11.324 0 0 1 10.461-1.844l1.935.627-13.748 17.848a11.24 11.24 0 0 1-2.864-5.87c-.677-4.152.899-8.175 4.216-10.761zm-38.291 5.248a39.245 39.245 0 0 1 16.307-8.425c-2.214 5.282-2.948 11.169-1.97 17.159 1.874 11.48 9.542 20.642 20.513 24.507l22.723 8.006c-4.272 9.324-4.121 20.202.671 29.493a66.17 66.17 0 0 1 4.932 12.58c.116.419.26.83.43 1.229.063.149 6.136 15.371-.171 33.284a70.16 70.16 0 0 0-1.023 3.219c-.275.92-.536 1.789-.807 2.533l-4.884 13.416-2.261-2.288c-12.934-13.088-16.561-32.453-9.242-49.335 3.978-9.176 3.617-19.528-.991-28.404-4.608-8.876-12.868-15.129-22.662-17.156-15.74-3.256-28.344-14.431-33.507-29.479l11.942-10.339zm50.712 162.827v51.259a50.97 50.97 0 0 1-13.402 8.506l-15.534-18.786c10.596-13.029 17.198-28.545 19.239-45.044l9.697 4.065zm-64.038-99.775a27.099 27.099 0 0 0 0-3.748V92.479c8.483 7.779 19.048 13.302 30.838 15.741a13.03 13.03 0 0 1 8.963 6.785 13.036 13.036 0 0 1 .392 11.234c-7.717 17.801-7.01 37.507 1.185 54.216l-2.4-1.006c-23.678-9.927-38.978-32.931-38.978-58.604v-8.977zm-12.665 105.85l6.129-51.34c8.939 13.757 21.927 24.869 37.781 31.517l3.715 1.558c-.629 14.993-6.036 29.207-15.58 40.832l-12.166-4.642c-8.42-3.213-15.426-8.725-20.428-15.67a9.967 9.967 0 0 0 .549-2.255zm40.785 57.845c-11.546-.471-22.404-4.75-31.141-12.229l20.522-.613 10.619 12.842zM158.43 108.345c.871-3.727 3.821-4.923 5.049-5.264 1.228-.343 4.375-.84 7.042 1.903a7.14 7.14 0 0 1 1.957 4.071v1.812c-.023.184-.041.369-.079.553a9.564 9.564 0 0 0-.137.841l-1.953 16.361-16.967 1.5 5.088-21.777zm-31.401 6.586a11.32 11.32 0 0 1 8.758-6.01l2.022-.231-5.125 21.936a11.227 11.227 0 0 1-5.037-4.154c-2.336-3.498-2.567-7.813-.618-11.541zm-39.272 34.986l6.589-14.355a39.255 39.255 0 0 1 11.356-14.422c.171 5.725 1.941 11.388 5.311 16.436 5.918 8.866 15.458 13.943 25.93 13.943.956 0 1.921-.042 2.89-.128l28.054-2.479-3.218 26.952a33.165 33.165 0 0 0-6.475-6.75c-7.869-6.172-17.976-8.445-27.732-6.236-15.676 3.555-31.775-1.399-42.705-12.961zm24.281 56.729l-11.745-25.821c10.942 3.568 22.846 4.221 34.589 1.56a13.042 13.042 0 0 1 10.969 2.467 13.029 13.029 0 0 1 5.007 10.063c.345 19.398 9.148 37.045 23.526 48.863l-2.603.078c-25.66.741-49.113-13.841-59.743-37.21zm89.772 226.218c-6.19-3.99-9.74-10.501-9.74-17.864 0-7.363 3.55-13.874 9.74-17.862 6.19-3.988 13.585-4.532 20.291-1.487l16.479 7.478c-.124.898-.21 1.807-.21 2.738v18.268c0 .931.086 1.84.21 2.738l-16.479 7.478c-6.705 3.044-14.1 2.501-20.291-1.487zM210.483 492l13.931-37.272a41.556 41.556 0 0 0 5.951-2.166l21.241-9.639a19.85 19.85 0 0 0 6.752 1.199h15.535c2.371 0 4.637-.437 6.75-1.198l21.138 9.608a41.61 41.61 0 0 0 4.576 1.755L321.337 492H210.483zm47.875-86.122l15.523-.012.023 18.256h-.011l-15.524.012-.011-18.256zm71.976 26.969c-6.187 3.984-13.578 4.523-20.277 1.478l-16.387-7.448c.124-.899.211-1.81.211-2.743v-18.268c0-.933-.087-1.844-.211-2.743l16.387-7.448c5.429-2.469 11.312-2.581 16.641-.415.091.043.184.08.276.12a22.077 22.077 0 0 1 3.36 1.772c6.187 3.983 9.735 10.489 9.735 17.848 0 7.359-3.548 13.864-9.735 17.847zm-2.449-58.071a41.074 41.074 0 0 0-26.104 2.691l-21.139 9.608a19.858 19.858 0 0 0-6.75-1.198h-15.535a19.85 19.85 0 0 0-6.752 1.199l-21.241-9.639a41.086 41.086 0 0 0-26.793-2.519l-96.437-106.272c8.458-5.806 18.459-8.929 28.939-8.929 13.698 0 26.575 5.335 36.261 15.021 27.227 27.226 71.169 27.761 99.077 1.644a10.042 10.042 0 0 0 3.553-3.38c9.45-8.584 21.582-13.284 34.437-13.284 13.698 0 26.575 5.335 36.261 15.021a72.016 72.016 0 0 0 10.559 8.717l-32.768 35.829c-3.727 4.075-3.445 10.401.63 14.128a9.963 9.963 0 0 0 6.746 2.621 9.976 9.976 0 0 0 7.382-3.251l36.857-40.299a71.503 71.503 0 0 0 20.996 3.132c1.453 0 2.899-.043 4.337-.128l-72.516 79.288zm104.442-114.181c-9.686 9.686-22.563 15.02-36.261 15.02-8.126 0-15.958-1.891-23.011-5.441l30.476-2.347a83.657 83.657 0 0 0 29.431-7.805c-.218.182-.432.37-.635.573zm25.1-56.072c-8.078 24.371-29.836 41.391-55.433 43.362l-19.712 1.519 5.182-6.552c.853-1.078 1.6-2.145 2.259-3.085.501-.716.976-1.393 1.422-1.969 15.029-19.421 14.984-40.315 14.796-44.629a86.254 86.254 0 0 0-.966-17.055 13.722 13.722 0 0 1 5.144-12.972c17.073-13.242 39.667-17.594 60.435-11.647l4.064 1.164-17.191 51.864zm19.151-72.105l-.518-.148a87.68 87.68 0 0 0-27.812-3.299 27.144 27.144 0 0 0-14.098-29.862 27.151 27.151 0 0 0-6.495-2.35l16.648-2.064 25.464 18.544c6.149 4.479 8.622 12.198 6.811 19.179z"/><path d="M315.6 343.34c-1.86-1.861-4.44-2.92-7.07-2.92s-5.21 1.06-7.07 2.92a10.1 10.1 0 0 0-2.93 7.08c0 2.63 1.07 5.21 2.93 7.07 1.86 1.859 4.44 2.93 7.07 2.93s5.21-1.07 7.07-2.93a10.05 10.05 0 0 0 2.93-7.07c0-2.64-1.06-5.21-2.93-7.08zM424.176 30.468h-5.5v-5.5c0-5.522-4.477-10-10-10s-10 4.478-10 10v5.5h-5.5c-5.523 0-10 4.478-10 10s4.477 10 10 10h5.5v5.5c0 5.522 4.477 10 10 10s10-4.478 10-10v-5.5h5.5c5.523 0 10-4.478 10-10s-4.477-10-10-10zM55.607 245.174h-5.5v-5.5c0-5.522-4.477-10-10-10s-10 4.478-10 10v5.5h-5.5c-5.523 0-10 4.478-10 10s4.477 10 10 10h5.5v5.5c0 5.522 4.477 10 10 10s10-4.478 10-10v-5.5h5.5c5.523 0 10-4.478 10-10s-4.477-10-10-10zm31-186.903h-5.5v-5.5c0-5.522-4.477-10-10-10s-10 4.478-10 10v5.5h-5.5c-5.523 0-10 4.478-10 10s4.477 10 10 10h5.5v5.5c0 5.522 4.477 10 10 10s10-4.478 10-10v-5.5h5.5c5.523 0 10-4.478 10-10s-4.477-10-10-10zm28.202-39.024h-.313c-5.523 0-10 4.478-10 10s4.478 10 10 10h.313c5.523 0 10-4.478 10-10s-4.477-10-10-10zm372.545 231.85h-.313c-5.523 0-10 4.478-10 10s4.477 10 10 10h.313c5.523 0 10-4.478 10-10s-4.477-10-10-10zm-.157-203.334h-.313c-5.523 0-10 4.478-10 10s4.477 10 10 10h.313c5.523 0 10-4.478 10-10s-4.477-10-10-10z"/></symbol><symbol viewBox="0 0 512 512" id="icon-basket" xmlns="http://www.w3.org/2000/svg"><path d="M492 352a20 20 0 0 0 20-20V152a20 20 0 0 0-20-20H366v-22a110 110 0 0 0-220 0v22H20a20 20 0 0 0-20 20v280a80.09 80.09 0 0 0 80 80h352a80.09 80.09 0 0 0 80-80 20 20 0 0 0-40 0 40 40 0 0 1-40 40H80a40 40 0 0 1-40-40V172h106v75a20 20 0 0 0 40 0V110a70 70 0 0 1 140 0v22h-80a20 20 0 0 0 0 40h80v75a20 20 0 0 0 40 0v-75h106v160a20 20 0 0 0 20 20z"/></symbol><symbol viewBox="0 0 511 510.98" id="icon-bouket" xmlns="http://www.w3.org/2000/svg"><path d="M506.16 269.6a20 20 0 1 0-38.73 9.69 119.82 119.82 0 0 1 3.65 29c0 3.45-.21 6.95-.52 10.32a150.11 150.11 0 0 1-14.88-8.93c-21.83-14.88-39.41-34.74-52.39-59.12A54.82 54.82 0 0 0 427.68 213a42.77 42.77 0 0 0 .49-7.15 40.76 40.76 0 0 0 5 2.75 55 55 0 1 0 45.61-100.06 54.71 54.71 0 0 0-78.14-76.59q-.37.38-.75.78-.44-1-.84-1.83a55.17 55.17 0 0 0-73.48-25.37 54.2 54.2 0 0 0-25.91 26.74C275.11 15.72 241.17 0 200.61 0 179.8 0 159 5.27 158.08 5.49a20 20 0 0 0-14.42 24.27c0 .15.1.3.14.45l-.55.14c.44 1.77 6.38 24.36 25.49 51.12a18.9 18.9 0 0 0 0 3.19c.81 8.77-1.69 41-42.34 151.05-18.73 50.66-38.08 97.49-44.64 113.2L9 396.47a20 20 0 0 0-8 22.85c14.4 44.56 45.54 75.05 92.52 90.68a20 20 0 0 0 23-8.08l36.74-56.56c7 6.47 12.09 13.18 17.38 20.13 8.64 11.38 17.59 23.15 33.62 32C221 506.69 242.65 511 272.47 511a20 20 0 0 0 0-39.92c-47.42 0-55.93-11.2-70-29.75a207.66 207.66 0 0 0-17-20.33c22.06-8.94 54.92-21.87 90.2-34.41 107.33-38.15 147-41.07 161.15-39.4a20.38 20.38 0 0 0 3.4.08c21.89 13.56 39 18 40.46 18.42l.14-.56a3.88 3.88 0 0 0 .45.14 19.63 19.63 0 0 0 4.94.63 20 20 0 0 0 19.33-15c.23-.88 5.47-21.73 5.47-42.53a159.85 159.85 0 0 0-4.85-38.77zM304.89 123.76c5.18-.53 20.71 3.21 39.2 9.07-15.6 11.24-29.08 19.56-34.15 20.67a15.25 15.25 0 0 1-17.31-12.6 14.88 14.88 0 0 1 12.26-17.14zm53.58 78.53c1.09-5.08 9.38-18.64 20.59-34.35 5.9 18.36 9.67 33.77 9.16 39a15.06 15.06 0 0 1-27 6.48 14.89 14.89 0 0 1-2.75-11.13zm111.25-37.42a15 15 0 0 1-19.85 7.42c-4.61-2.43-15.49-14.12-27.67-29.24 19.29-.69 35.18-.12 40 1.77a15.21 15.21 0 0 1 7.52 20.05zM429 60.1A14.8 14.8 0 0 1 449.89 81c-3.84 3.4-18.23 9.32-36.2 15.27C419.64 78.33 425.56 64 429 60.1zm-93.43-10.2a14.66 14.66 0 0 1 7.49-8.49 15.19 15.19 0 0 1 20.17 7c2 4.77 3 20.55 2.92 39.8-15.38-11.75-27.31-22.28-29.86-26.81a15 15 0 0 1-.72-11.5zm-34.83 34.15c-.73.08-1.42.17-2.06.27a54.41 54.41 0 0 0-35.8 22c-.66.91-1.27 1.84-1.86 2.78-24.95-12.73-45.31-30.2-60.65-52.1a150.66 150.66 0 0 1-10.08-16.53c3.37-.32 6.87-.52 10.32-.52C246.8 40 283 67.43 300.74 84.05zM91.92 466.51C70 456.4 54.36 441.36 44.51 421l50.11-32.76 28.31 30.54zM262.29 349c-47.66 16.95-91.07 34.62-110.17 42.57l-30.94-33.39c8.3-20 25.72-62.68 42.63-108.45 24.18-65.42 35.57-105.27 40.8-129.93a215.83 215.83 0 0 0 49.1 30.14 55.15 55.15 0 0 0 62.58 43c1.08-.18 2.25-.41 3.55-.74a38.12 38.12 0 0 0-.8 3.89 54.94 54.94 0 0 0 43.55 62.33 213.51 213.51 0 0 0 33.81 51.9C363.47 316 319.07 328.77 262.29 349z"/></symbol><symbol viewBox="0 0 83.22 110.63" id="icon-cabinet" xmlns="http://www.w3.org/2000/svg"><path d="M57.76 46.42A25.77 25.77 0 0 0 68 25.93a26.39 26.39 0 0 0-52.78 0 25.74 25.74 0 0 0 10.24 20.49A40.93 40.93 0 0 0 0 84.09V90a4.36 4.36 0 0 0 4.4 4.32h18.75l15.35 15.04a4.44 4.44 0 0 0 6.22 0l15.34-15.08h18.76a4.36 4.36 0 0 0 4.4-4.28v-5.91a40.94 40.94 0 0 0-25.46-37.67zM24 25.93a17.6 17.6 0 0 1 35.19 0 17.6 17.6 0 0 1-35.19 0zm50.42 59.71H58.24a4.42 4.42 0 0 0-3.11 1.27l-13.52 13.28-13.53-13.28A4.39 4.39 0 0 0 25 85.64H8.8v-1.55c0-17.77 14.72-32.23 32.81-32.23s32.81 14.46 32.81 32.23z"/></symbol><symbol viewBox="0 0 110.12 96.35" id="icon-calen" xmlns="http://www.w3.org/2000/svg"><path d="M96.35 6.88h-9.17V4.59a4.59 4.59 0 0 0-9.18 0v2.29H59.65V4.59a4.59 4.59 0 1 0-9.18 0v2.29H32.12V4.59a4.59 4.59 0 1 0-9.18 0v2.29h-9.18A13.78 13.78 0 0 0 0 20.65v61.94a13.77 13.77 0 0 0 13.76 13.76h82.59a13.78 13.78 0 0 0 13.77-13.76V20.65A13.79 13.79 0 0 0 96.35 6.88zM9.18 20.65a4.59 4.59 0 0 1 4.58-4.59h9.18v2.29a4.59 4.59 0 1 0 9.18 0v-2.29h18.35v2.29a4.59 4.59 0 1 0 9.18 0v-2.29H78v2.29a4.59 4.59 0 0 0 9.18 0v-2.29h9.17a4.6 4.6 0 0 1 4.59 4.59v9.17H9.18zm91.76 61.94a4.6 4.6 0 0 1-4.59 4.59H13.76a4.59 4.59 0 0 1-4.58-4.59V39h91.76zM41.29 52.76a4.59 4.59 0 1 1 4.59 4.59 4.59 4.59 0 0 1-4.59-4.59zm18.36 0a4.59 4.59 0 1 1 4.59 4.59 4.58 4.58 0 0 1-4.59-4.59zm18.35 0a4.59 4.59 0 1 1 4.59 4.59A4.58 4.58 0 0 1 78 52.76zM22.94 71.12a4.59 4.59 0 1 1 4.59 4.59 4.59 4.59 0 0 1-4.59-4.59zm18.35 0a4.59 4.59 0 1 1 4.59 4.59 4.59 4.59 0 0 1-4.59-4.59zm18.36 0a4.59 4.59 0 1 1 4.59 4.59 4.58 4.58 0 0 1-4.59-4.59z"/></symbol><symbol viewBox="0 0 19 19" id="icon-close" xmlns="http://www.w3.org/2000/svg"><path d="M12.23 9.8a.42.42 0 0 1 0-.59l6.51-6.51a.92.92 0 0 0 .26-.62.91.91 0 0 0-.26-.6L17.53.26a.94.94 0 0 0-.61-.26.78.78 0 0 0-.61.26L9.8 6.77a.41.41 0 0 1-.59 0L2.69.26A.92.92 0 0 0 2.08 0a.94.94 0 0 0-.61.26L.26 1.48a.91.91 0 0 0-.26.6.94.94 0 0 0 .26.61L6.77 9.2a.42.42 0 0 1 0 .59L.26 16.31a.92.92 0 0 0-.26.61 1 1 0 0 0 .26.61l1.21 1.21a1 1 0 0 0 .61.26.92.92 0 0 0 .61-.26l6.51-6.51a.41.41 0 0 1 .59 0l6.51 6.51a.85.85 0 0 0 1.22 0l1.21-1.21a.94.94 0 0 0 .26-.61.92.92 0 0 0-.26-.61z"/></symbol><symbol viewBox="0 0 512 423.1" id="icon-delivery" xmlns="http://www.w3.org/2000/svg"><path d="M450.81 214.92l-11.45-58.26c-3.14-16.35-8.55-28.84-16.54-38.17-10.31-12-24.77-18.39-41.82-18.39h-67V20a20 20 0 0 0-20-20H20A20 20 0 0 0 0 20v283.1a80.08 80.08 0 0 0 78.43 80 60 60 0 0 0 113.13 0h123.88a60 60 0 0 0 113.12 0H492a20 20 0 0 0 20-20v-72a78.14 78.14 0 0 0-61.19-76.18zM314 140.1h67c6.1 0 14.46 0 19.08 24.13v.1l9.78 49.77H314zm-179 243a20 20 0 1 1 20-20 20 20 0 0 1-20 20zm237 0a20 20 0 1 1 20-20 20 20 0 0 1-20 20zm100-40h-43.44a60 60 0 0 0-113.12 0H191.56a60 60 0 0 0-113.11 0 40 40 0 0 1-38.45-40V40h234v174.1H100a20 20 0 0 0 0 40h333a20.15 20.15 0 0 0 5.35-.74A38 38 0 0 1 472 291.1z"/></symbol><symbol viewBox="0 0 512 512" id="icon-discount" xmlns="http://www.w3.org/2000/svg"><path d="M306.7 512a67.07 67.07 0 0 1-36.17-10.58 27 27 0 0 0-29.07 0 66.93 66.93 0 0 1-95.59-25.61 27 27 0 0 0-25.17-14.53 67 67 0 0 1-70-70 27 27 0 0 0-14.53-25.18 66.93 66.93 0 0 1-25.61-95.59 27 27 0 0 0 0-29.07 66.93 66.93 0 0 1 25.61-95.59 27 27 0 0 0 14.55-25.15 67 67 0 0 1 70-70 27 27 0 0 0 25.17-14.53 66.93 66.93 0 0 1 95.59-25.61 27 27 0 0 0 29.07 0 66.93 66.93 0 0 1 95.59 25.61 27 27 0 0 0 25.16 14.56 66.93 66.93 0 0 1 70 70 27 27 0 0 0 14.54 25.18 66.94 66.94 0 0 1 25.61 95.58 27 27 0 0 0 0 29.08 66.94 66.94 0 0 1-25.61 95.58 20 20 0 0 1-18.37-35.54 26.94 26.94 0 0 0 10.3-38.46 67.11 67.11 0 0 1 0-72.25 26.94 26.94 0 0 0-10.3-38.46 67.11 67.11 0 0 1-36.13-62.57 26.93 26.93 0 0 0-28.15-28.16 67.17 67.17 0 0 1-62.58-36.12 26.93 26.93 0 0 0-38.46-10.31 67.11 67.11 0 0 1-72.25 0 26.94 26.94 0 0 0-38.46 10.31 67.14 67.14 0 0 1-59.48 36.2c-1 0-2.06 0-3.09-.08a26.94 26.94 0 0 0-28.16 28.16 67.11 67.11 0 0 1-36.12 62.57 26.94 26.94 0 0 0-10.31 38.46 67.11 67.11 0 0 1 0 72.25 26.93 26.93 0 0 0 10.31 38.46 67.13 67.13 0 0 1 36.12 62.58 26.94 26.94 0 0 0 28.16 28.16 67.16 67.16 0 0 1 62.57 36.12 26.92 26.92 0 0 0 38.46 10.3 67.15 67.15 0 0 1 72.25 0 26.92 26.92 0 0 0 38.46-10.3 67.08 67.08 0 0 1 62.58-36.12 26.7 26.7 0 0 0 15.89-4.35 20 20 0 0 1 21.86 33.51 66.43 66.43 0 0 1-39.64 10.76 27 27 0 0 0-25.18 14.54A66.87 66.87 0 0 1 306.7 512zM224 185a50 50 0 1 0-50 50 50.06 50.06 0 0 0 50-50zm-40 0a10 10 0 1 1-10-10 10 10 0 0 1 10 10zm205 140a50 50 0 1 0-50 50 50.06 50.06 0 0 0 50-50zm-40 0a10 10 0 1 1-10-10 10 10 0 0 1 10 10zm-126.6 39.52l108.11-200a20 20 0 1 0-35.18-19l-108.12 200a20 20 0 1 0 35.19 19z"/></symbol><symbol viewBox="0 0 512 512" id="icon-facebook" xmlns="http://www.w3.org/2000/svg"><path d="M288 176v-64c0-17.664 14.336-32 32-32h32V0h-64c-53.024 0-96 42.976-96 96v80h-64v80h64v256h96V256h64l32-80h-96z"/></symbol><symbol viewBox="0 0 57.32 53.78" id="icon-flowers" xmlns="http://www.w3.org/2000/svg"><path d="M57.2 19.41a9 9 0 0 1-5.74-.21c-.07-4.81-2.28-10.9-6.67-14.1-2.38-1.74-6.38-3.35-12-1.38C29.88.93 25-.36 18.83.08l-2.58.19.42 2.56c.32 2-.41 3.29-1.42 5.09-1.15 2-2.52 4.46-2.14 8.06a14.87 14.87 0 0 0-3.09.77C4.13 18.87.43 24.25.13 31.15L0 34.21l3-.64c2.94-.62 4.71.62 7 2.2 1.81 1.28 4 2.79 6.79 2.86 1.73 2.48.75 7.42.18 9.54l-.43 1.62 1.38 1c5.12 3.51 10.5 4 15 1.4A14.23 14.23 0 0 0 34.54 51a15.52 15.52 0 0 0 5.6-9.41 19.79 19.79 0 0 0 7.45-2.52 20.62 20.62 0 0 0 4.5-3.43 17.59 17.59 0 0 0 5.22-13.37zM42 8.92c2.43 1.77 3.94 5 4.49 8a20.23 20.23 0 0 0-8.91-2.21 7.67 7.67 0 0 0-.21-1.75 14.06 14.06 0 0 0-1.71-5.16A7.49 7.49 0 0 1 42 8.92zm-22.62 1.32a13.91 13.91 0 0 0 2.05-5.51c4.05 0 7.05 1.1 8.51 2.91a21.5 21.5 0 0 1 2.49 4c1 4.24-1.72 7.39-4.88 9.15-.07-2.41-.56-7.33-3.15-10.09a26.25 26.25 0 0 1-.26 10.78 11.41 11.41 0 0 0-5.56-5.09 4.67 4.67 0 0 0-.64-.18c-.51-2.51.33-4 1.44-5.97zM12.66 31.9c-1.94-1.37-4.25-3-7.45-3.21a9.84 9.84 0 0 1 6.42-7.49 7.93 7.93 0 0 1 9.42 3.1c-1.47-.43-5-1-9.79 1.6 0 0 6-1 10.37 2.27a8.7 8.7 0 0 1-2.18 3.51 5.22 5.22 0 0 1-6.79.22zm19 15.4c-2 1.57-5.32 2.81-9.77.36.55-3.24.35-8.37-1-11.53a15.17 15.17 0 0 0 3.95-5.44 15.87 15.87 0 0 1 3 11.51c2.2-3.46 2.42-8.52-.8-13.81a18.37 18.37 0 0 1 8.51 10.09c.63 1.81-.55 6.21-3.91 8.82zm17.06-14.95a16 16 0 0 1-8.66 4.51c-.69-2.86-3.3-6.99-6.53-9.86 2.56-.35 5.87-.75 9.28-1a27 27 0 0 0-11.37-3.1 14.88 14.88 0 0 0 4.16-3.29c4.59-.82 8 1 11.4 2.83a20.08 20.08 0 0 0 5.49 2.31 13.09 13.09 0 0 1-3.77 7.6z"/></symbol><symbol viewBox="0 0 82.59 110.12" id="icon-geo" xmlns="http://www.w3.org/2000/svg"><path d="M41.29 0A41.33 41.33 0 0 0 0 41.29C0 75.51 36.73 107.65 38.29 109a4.59 4.59 0 0 0 6 0c1.56-1.35 38.29-33.49 38.29-67.71A41.34 41.34 0 0 0 41.29 0zm0 99.27c-8.5-8.2-32.11-33.2-32.11-58a32.12 32.12 0 0 1 64.23 0c0 24.73-23.62 49.79-32.12 58zm0-76.33a18.36 18.36 0 1 0 18.36 18.35 18.37 18.37 0 0 0-18.36-18.35zm0 27.53a9.18 9.18 0 1 1 9.18-9.18 9.18 9.18 0 0 1-9.18 9.18z"/></symbol><symbol viewBox="0 0 124 124" id="icon-hamburger" xmlns="http://www.w3.org/2000/svg"><path d="M112 6H12C5.4 6 0 11.4 0 18s5.4 12 12 12h100c6.6 0 12-5.4 12-12s-5.4-12-12-12zm0 44H12C5.4 50 0 55.4 0 62s5.4 12 12 12h100c6.6 0 12-5.4 12-12s-5.4-12-12-12zm0 44H12c-6.6 0-12 5.4-12 12s5.4 12 12 12h100c6.6 0 12-5.4 12-12s-5.4-12-12-12z"/></symbol><symbol viewBox="0 0 512 512" id="icon-inst" xmlns="http://www.w3.org/2000/svg"><path d="M352 0H160C71.648 0 0 71.648 0 160v192c0 88.352 71.648 160 160 160h192c88.352 0 160-71.648 160-160V160C512 71.648 440.352 0 352 0zm112 352c0 61.76-50.24 112-112 112H160c-61.76 0-112-50.24-112-112V160C48 98.24 98.24 48 160 48h192c61.76 0 112 50.24 112 112v192z"/><path d="M256 128c-70.688 0-128 57.312-128 128s57.312 128 128 128 128-57.312 128-128-57.312-128-128-128zm0 208c-44.096 0-80-35.904-80-80 0-44.128 35.904-80 80-80s80 35.872 80 80c0 44.096-35.904 80-80 80z"/><circle cx="393.6" cy="118.4" r="17.056"/></symbol><symbol viewBox="0 0 110.12 110.12" id="icon-mob" xmlns="http://www.w3.org/2000/svg"><path d="M0 80a17.43 17.43 0 0 0 5.15 12.41l9 9A29.6 29.6 0 0 0 35 110.12a28 28 0 0 0 4.73-.4 85.25 85.25 0 0 0 70-70 29.42 29.42 0 0 0-8.3-25.58l-9-9A17.56 17.56 0 0 0 64 10.3a25.7 25.7 0 0 0 9.39 32.08 71.78 71.78 0 0 1-31 31A25.7 25.7 0 0 0 10.3 64 17.59 17.59 0 0 0 0 80zm9.18 0a8.41 8.41 0 0 1 4.92-7.64 16.47 16.47 0 0 1 21.22 7.12l1.14 2.1a4.58 4.58 0 0 0 5.89 2 81 81 0 0 0 41.23-41.23 4.58 4.58 0 0 0-2-5.89l-2.1-1.14a16.47 16.47 0 0 1-7.13-21.22 8.41 8.41 0 0 1 13.58-2.47l9 9a20.2 20.2 0 0 1 5.74 17.57 76.1 76.1 0 0 1-62.46 62.46 20.23 20.23 0 0 1-17.57-5.74l-9-9A8.38 8.38 0 0 1 9.18 80z"/></symbol><symbol viewBox="0 0 512 512" id="icon-mouse" xmlns="http://www.w3.org/2000/svg"><path d="M370.26 140.32c-31.69-31.61-66.41-51.23-100.41-56.72-39.41-6.37-76.34 6.32-106.84 36.74L38.39 245.61C13.28 270.66 0 300.75 0 332.61c0 40.21 20.23 81.64 58.48 119.81l1.26 1.25c31.69 31.62 66.41 51.24 100.4 56.73a123.29 123.29 0 0 0 19.66 1.6c32 0 61.81-13 87.13-38.29a20 20 0 0 0-28.25-28.32c-58.94 58.8-125 5.58-150.69-20l-1.25-1.25C56.6 394 40 361.54 40 332.61c0-21.31 9-41.05 26.7-58.74l67.78-68.13c14 9.07 56.1 37.82 102.39 83.76a691 691 0 0 1 72.37 85.07l-1.88 1.89a20 20 0 0 0 28.38 28.18l55.87-56.25c25.11-25.06 38.39-55.14 38.39-87 0-40.21-20.23-81.64-58.48-119.81zm-178.94 8.29c50.6-50.48 106.46-18.4 137.49 7.89l-84.76 84.56a698.44 698.44 0 0 0-80.78-64.26zm172 171.53L337.8 345.8a734.3 734.3 0 0 0-65.05-76.87l84.25-84c21.4 25.65 33 52.32 33 76.5 0 21.26-9 41.01-26.71 58.71zM332 56V20a20 20 0 0 1 40 0v36a20 20 0 0 1-40 0zm180 104a20 20 0 0 1-20 20h-36a20 20 0 0 1 0-40h36a20 20 0 0 1 20 20zM410.51 96.79a20 20 0 0 1 .7-28.28l26-24.74a20 20 0 0 1 27.58 29l-26 24.74a20 20 0 0 1-28.28-.7z"/></symbol><symbol viewBox="0 0 13 13" id="icon-rating" xmlns="http://www.w3.org/2000/svg"><defs><path id="sa" d="M836.5 3792.45l4.017 2.55-1.063-4.81 3.546-3.234-4.674-.422L836.5 3782l-1.826 4.534-4.674.422 3.546 3.234-1.063 4.81z"/></defs><use xlink:href="#sa" transform="translate(-830 -3782)"/></symbol><symbol viewBox="0 0 512 511" id="icon-save" xmlns="http://www.w3.org/2000/svg"><path d="M392.24 172.66v184a39.93 39.93 0 1 1-39.93 0v-184a20 20 0 0 1 39.93 0zm99.8 19a20 20 0 0 0 0-39.93H462.1v-30.97H492a20 20 0 0 0 0-39.92h-30.35a89.84 89.84 0 0 0-136.18-67.69 20 20 0 0 0 20.82 34.06 49.92 49.92 0 0 1 75.89 42.61v151.71a20 20 0 0 0 20 20H492a20 20 0 0 0 0-39.92h-29.9v-29.98zM442 317.1a20 20 0 0 0-4.66 27.84 79.85 79.85 0 1 1-120.95-10.72 20 20 0 0 0-27.94-28.51 119.76 119.76 0 1 0 181.39 16A20 20 0 0 0 442 317.1zm-175.8-36.39a20 20 0 0 0 14.31-24.33c-2.31-8.95-5.19-20.08-7.62-29.43l29.53-7.61a20 20 0 0 0-10-38.66l-40.88 10.54-53.49-31.47 53.49-31.46 40.88 10.54a20 20 0 1 0 10-38.65l-29.53-7.62c2.43-9.36 5.31-20.48 7.62-29.43a20 20 0 1 0-38.64-10L231.3 93.89l-52.65 31V63.93l29.84-29.77A20 20 0 0 0 180.28 5.9l-21.59 21.55-21.58-21.54a20 20 0 1 0-28.21 28.25l29.84 29.77v60.93l-52.66-31-10.55-40.73a20 20 0 1 0-38.65 10l7.62 29.43-29.5 7.62a20 20 0 1 0 10 38.65l40.88-10.54 53.5 31.46-53.5 31.47L25 180.68a20 20 0 0 0-10 38.66L44.5 227l-7.62 29.43a20 20 0 0 0 14.32 24.28 20.21 20.21 0 0 0 5 .64 20 20 0 0 0 19.31-15l10.55-40.76 52.65-31v60.92l-29.81 29.85a20 20 0 0 0 28.21 28.25l21.58-21.55 21.59 21.55a20 20 0 1 0 28.2-28.25l-29.83-29.78v-60.92l52.65 31 10.56 40.77a20 20 0 0 0 19.31 15 20.21 20.21 0 0 0 5.02-.72z"/></symbol><symbol viewBox="0 0 512 512" id="icon-twitter" xmlns="http://www.w3.org/2000/svg"><path d="M512 97.248c-19.04 8.352-39.328 13.888-60.48 16.576 21.76-12.992 38.368-33.408 46.176-58.016-20.288 12.096-42.688 20.64-66.56 25.408C411.872 60.704 384.416 48 354.464 48c-58.112 0-104.896 47.168-104.896 104.992 0 8.32.704 16.32 2.432 23.936-87.264-4.256-164.48-46.08-216.352-109.792-9.056 15.712-14.368 33.696-14.368 53.056 0 36.352 18.72 68.576 46.624 87.232-16.864-.32-33.408-5.216-47.424-12.928v1.152c0 51.008 36.384 93.376 84.096 103.136-8.544 2.336-17.856 3.456-27.52 3.456-6.72 0-13.504-.384-19.872-1.792 13.6 41.568 52.192 72.128 98.08 73.12-35.712 27.936-81.056 44.768-130.144 44.768-8.608 0-16.864-.384-25.12-1.44C46.496 446.88 101.6 464 161.024 464c193.152 0 298.752-160 298.752-298.688 0-4.64-.16-9.12-.384-13.568 20.832-14.784 38.336-33.248 52.608-54.496z"/></symbol><symbol viewBox="0 0 511.962 511.962" id="icon-vk" xmlns="http://www.w3.org/2000/svg"><path d="M507.399 370.471c-1.376-2.304-9.888-20.8-50.848-58.816-42.88-39.808-37.12-33.344 14.528-102.176 31.456-41.92 44.032-67.52 40.096-78.464-3.744-10.432-26.88-7.68-26.88-7.68l-76.928.448s-5.696-.768-9.952 1.76c-4.128 2.496-6.784 8.256-6.784 8.256s-12.192 32.448-28.448 60.032c-34.272 58.208-48 61.28-53.6 57.664-13.024-8.416-9.76-33.856-9.76-51.904 0-56.416 8.544-79.936-16.672-86.016-8.384-2.016-14.528-3.36-35.936-3.584-27.456-.288-50.72.096-63.872 6.528-8.768 4.288-15.52 13.856-11.392 14.4 5.088.672 16.608 3.104 22.72 11.424 7.904 10.72 7.616 34.848 7.616 34.848s4.544 66.4-10.592 74.656c-10.4 5.664-24.64-5.888-55.2-58.72-15.648-27.04-27.488-56.96-27.488-56.96s-2.272-5.568-6.336-8.544c-4.928-3.616-11.84-4.768-11.84-4.768l-73.152.448s-10.976.32-15.008 5.088c-3.584 4.256-.288 13.024-.288 13.024s57.28 133.984 122.112 201.536c59.488 61.92 127.008 57.856 127.008 57.856h30.592s9.248-1.024 13.952-6.112c4.352-4.672 4.192-13.44 4.192-13.44s-.608-41.056 18.464-47.104c18.784-5.952 42.912 39.68 68.48 57.248 19.328 13.28 34.016 10.368 34.016 10.368l68.384-.96s35.776-2.208 18.816-30.336z"/></symbol></svg>